<!DOCTYPE svg PUBLIC "-//W3C//DTD SVG 1.1//EN" "http://www.w3.org/Graphics/SVG/1.1/DTD/svg11.dtd"><svg xmlns:xlink="http://www.w3.org/1999/xlink" xmlns="http://www.w3.org/2000/svg" xmlns:ev="http://www.w3.org/2001/xml-events" width="313.258" height="559.052" xml:space="preserve" color-interpolation-filters="sRGB" class="st7" version="1.1">
 <style type="text/css" xml:space="preserve"><![CDATA[
	
		.st1 {fill:none;stroke:#000000;stroke-linecap:butt;stroke-width:0.5px}
		.st2 {fill:none;stroke:none;stroke-linecap:butt;stroke-width:0.75px}
		.st3 {fill:#000000;font-family:Arial,Helvetica,sans-serif;font-size:0.666664em}
		.st4 {font-size:1em}
		.st5 {fill:none;stroke:none;stroke-linecap:butt;stroke-width:0.5px}
		.st6 {fill:#000000;font-family:'Lucida Sans Typewriter','Lucida Console','Courier New',Courier,monospace;font-size:0.666664em}
		.st7 {fill:none;fill-rule:evenodd;font-size:12px;overflow:visible;stroke-linecap:square;stroke-miterlimit:3}]]></style>
 <g xmlns:v="http://schemas.microsoft.com/visio/2003/SVGExtensions/">
  <title>ARM</title>
  <g id="group2-1" transform="translate(12.0886,-357.041)">
   <title>Sheet.2</title>
   <desc>
    Vendor-specific memory
   </desc>
   <g id="shape3-2">
    <title>Sheet.3</title>
    <rect x="0" y="371.1" width="123.912" height="48.1892" class="st1" />
   </g>
   <g id="shape4-4" transform="translate(-8.79297E-13,-24.0992)">
    <title>Sheet.4</title>
    <desc>
     Vendor-specific memory
    </desc>
    <rect x="0" y="409.689" width="202.389" height="9.59996" class="st2" />
    <text x="34.79" y="416.89" class="st3">
     Vendor-specific
     <tspan x="47.92" dy="1.2em" class="st4">
      memory
     </tspan>
    </text>
   </g>
  </g>
  <g id="group5-8" transform="translate(12.0886,-240.822)">
   <title>Sheet.5</title>
   <desc>
    External device
   </desc>
   <g id="shape6-9">
    <title>Sheet.6</title>
    <rect x="0" y="328.581" width="123.912" height="90.7084" class="st1" />
   </g>
   <g id="shape7-11" transform="translate(34.61,-40.5584)">
    <title>Sheet.7</title>
    <desc>
     External device
    </desc>
    <rect x="0" y="409.689" width="120" height="9.59996" class="st2" />
    <text x="-0" y="416.89" class="st3">
     External device
    </text>
   </g>
  </g>
  <g id="group8-14" transform="translate(12.0886,-150.113)">
   <title>Sheet.8</title>
   <desc>
    External RAM
   </desc>
   <g id="shape9-15">
    <title>Sheet.9</title>
    <rect x="0" y="328.58" width="123.912" height="90.7087" class="st1" />
   </g>
   <g id="shape10-17" transform="translate(37.28,-40.5587)">
    <title>Sheet.10</title>
    <desc>
     External RAM
    </desc>
    <rect x="0" y="409.689" width="95.9996" height="9.59996" class="st2" />
    <text x="0" y="416.89" class="st3">
     External RAM
    </text>
   </g>
  </g>
  <g id="group11-20" transform="translate(12.0886,-104.759)">
   <title>Sheet.11</title>
   <desc>
    Peripheral
   </desc>
   <g id="shape12-21">
    <title>Sheet.12</title>
    <rect x="0" y="373.935" width="123.912" height="45.3543" class="st1" />
   </g>
   <g id="shape13-23" transform="translate(43.72,-17.8783)">
    <title>Sheet.13</title>
    <desc>
     Peripheral
    </desc>
    <rect x="0" y="409.689" width="79.9997" height="9.59996" class="st2" />
    <text x="0" y="416.89" class="st3">
     Peripheral
    </text>
   </g>
  </g>
  <g id="group14-26" transform="translate(12.0886,-59.4046)">
   <title>Sheet.14</title>
   <desc>
    SRAM
   </desc>
   <g id="shape15-27">
    <title>Sheet.15</title>
    <rect x="0" y="373.935" width="123.912" height="45.3543" class="st1" />
   </g>
   <g id="shape16-29" transform="translate(50.4,-17.8783)">
    <title>Sheet.16</title>
    <desc>
     SRAM
    </desc>
    <rect x="0" y="409.689" width="31.9999" height="9.59996" class="st2" />
    <text x="0" y="416.89" class="st3">
     SRAM
    </text>
   </g>
  </g>
  <g id="group17-32" transform="translate(12.0886,-14.0503)">
   <title>Sheet.17</title>
   <desc>
    Code
   </desc>
   <g id="shape18-33">
    <title>Sheet.18</title>
    <rect x="0" y="373.935" width="123.912" height="45.3543" class="st1" />
   </g>
   <g id="shape19-35" transform="translate(52.39,-17.8783)">
    <title>Sheet.19</title>
    <desc>
     Code
    </desc>
    <rect x="0" y="409.689" width="31.9999" height="9.59996" class="st2" />
    <text x="0" y="416.89" class="st3">
     Code
    </text>
   </g>
  </g>
  <g id="group20-38" transform="translate(141.444,-397.601)">
   <title>Sheet.20</title>
   <desc>
    0xFFFFFFFF
   </desc>
   <g id="shape21-39" transform="translate(-3.39728E-13,-1.9607)">
    <title>Sheet.21</title>
    <rect x="0" y="413.62" width="52.6249" height="5.66929" class="st5" />
   </g>
   <g id="shape22-41" transform="translate(1,0)">
    <title>Sheet.22</title>
    <desc>
     0xFFFFFFFF
    </desc>
    <rect x="0" y="409.689" width="79.9997" height="9.59996" class="st2" />
    <text x="0" y="416.89" class="st6">
     0xFFFFFFFF
    </text>
   </g>
  </g>
  <g id="group23-44" transform="translate(12.0886,-331.53)">
   <title>Sheet.23</title>
   <desc>
    Private peripheral bus
   </desc>
   <g id="shape24-45">
    <title>Sheet.24</title>
    <rect x="0" y="393.777" width="123.912" height="25.5118" class="st1" />
   </g>
   <g id="shape25-47" transform="translate(30.61,-12.7588)">
    <title>Sheet.25</title>
    <desc>
     Private peripheralbus
    </desc>
    <rect x="0" y="409.689" width="167.999" height="9.59996" class="st2" />
    <text x="0" y="416.89" class="st3">
     Private peripheralbus
    </text>
   </g>
  </g>
  <g id="group26-50" transform="translate(141.65,-355.081)">
   <title>Sheet.26</title>
   <desc>
    0xE0100000
   </desc>
   <g id="shape27-51" transform="translate(-3.39728E-13,-1.9607)">
    <title>Sheet.27</title>
    <rect x="0" y="413.62" width="52.6249" height="5.66929" class="st5" />
   </g>
   <g id="shape28-53" transform="translate(1,0)">
    <title>Sheet.28</title>
    <desc>
     0xE0100000
    </desc>
    <rect x="0" y="409.689" width="79.9997" height="9.59996" class="st2" />
    <text x="0" y="416.89" class="st6">
     0xE0100000
    </text>
   </g>
  </g>
  <g id="group29-56" transform="translate(141.855,-346.577)">
   <title>Sheet.29</title>
   <desc>
    0xE00FFFFF
   </desc>
   <g id="shape30-57" transform="translate(-3.39728E-13,-1.9607)">
    <title>Sheet.30</title>
    <rect x="0" y="413.62" width="52.6249" height="5.66929" class="st5" />
   </g>
   <g id="shape31-59" transform="translate(1,0)">
    <title>Sheet.31</title>
    <desc>
     0xE00FFFFF
    </desc>
    <rect x="0" y="409.689" width="79.9997" height="9.59996" class="st2" />
    <text x="0" y="416.89" class="st6">
     0xE00FFFFF
    </text>
   </g>
  </g>
  <g id="group32-62" transform="translate(141.65,-230.356)">
   <title>Sheet.32</title>
   <desc>
    0x9FFFFFFF
   </desc>
   <g id="shape33-63" transform="translate(-3.39728E-13,-1.9607)">
    <title>Sheet.33</title>
    <rect x="0" y="413.62" width="52.6249" height="5.66929" class="st5" />
   </g>
   <g id="shape34-65" transform="translate(1,0)">
    <title>Sheet.34</title>
    <desc>
     0x9FFFFFFF
    </desc>
    <rect x="0" y="409.689" width="79.9997" height="9.59996" class="st2" />
    <text x="0" y="416.89" class="st6">
     0x9FFFFFFF
    </text>
   </g>
  </g>
  <g id="group35-68" transform="translate(141.65,-238.861)">
   <title>Sheet.35</title>
   <desc>
    0xA0000000
   </desc>
   <g id="shape36-69" transform="translate(-3.39728E-13,-1.9607)">
    <title>Sheet.36</title>
    <rect x="0" y="413.62" width="52.6249" height="5.66929" class="st5" />
   </g>
   <g id="shape37-71" transform="translate(1,0)">
    <title>Sheet.37</title>
    <desc>
     0xA0000000
    </desc>
    <rect x="0" y="409.689" width="79.9997" height="9.59996" class="st2" />
    <text x="0" y="416.89" class="st6">
     0xA0000000
    </text>
   </g>
  </g>
  <g id="group38-74" transform="translate(141.65,-139.648)">
   <title>Sheet.38</title>
   <desc>
    0x5FFFFFFF
   </desc>
   <g id="shape39-75" transform="translate(-3.39728E-13,-1.9607)">
    <title>Sheet.39</title>
    <rect x="0" y="413.62" width="52.6249" height="5.66929" class="st5" />
   </g>
   <g id="shape40-77" transform="translate(1,0)">
    <title>Sheet.40</title>
    <desc>
     0x5FFFFFFF
    </desc>
    <rect x="0" y="409.689" width="79.9997" height="9.59996" class="st2" />
    <text x="0" y="416.89" class="st6">
     0x5FFFFFFF
    </text>
   </g>
  </g>
  <g id="group41-80" transform="translate(141.65,-148.152)">
   <title>Sheet.41</title>
   <desc>
    0x60000000
   </desc>
   <g id="shape42-81" transform="translate(-3.39728E-13,-1.9607)">
    <title>Sheet.42</title>
    <rect x="0" y="413.62" width="52.6249" height="5.66929" class="st5" />
   </g>
   <g id="shape43-83" transform="translate(1,0)">
    <title>Sheet.43</title>
    <desc>
     0x60000000
    </desc>
    <rect x="0" y="409.689" width="79.9997" height="9.59996" class="st2" />
    <text x="0" y="416.89" class="st6">
     0x60000000
    </text>
   </g>
  </g>
  <g id="group44-86" transform="translate(141.65,-94.2931)">
   <title>Sheet.44</title>
   <desc>
    0x3FFFFFFF
   </desc>
   <g id="shape45-87" transform="translate(-3.39728E-13,-1.9607)">
    <title>Sheet.45</title>
    <rect x="0" y="413.62" width="52.6249" height="5.66929" class="st5" />
   </g>
   <g id="shape46-89" transform="translate(1,0)">
    <title>Sheet.46</title>
    <desc>
     0x3FFFFFFF
    </desc>
    <rect x="0" y="409.689" width="79.9997" height="9.59996" class="st2" />
    <text x="0" y="416.89" class="st6">
     0x3FFFFFFF
    </text>
   </g>
  </g>
  <g id="group47-92" transform="translate(141.65,-102.798)">
   <title>Sheet.47</title>
   <desc>
    0x40000000
   </desc>
   <g id="shape48-93" transform="translate(-3.39728E-13,-1.9607)">
    <title>Sheet.48</title>
    <rect x="0" y="413.62" width="52.6249" height="5.66929" class="st5" />
   </g>
   <g id="shape49-95" transform="translate(1,0)">
    <title>Sheet.49</title>
    <desc>
     0x40000000
    </desc>
    <rect x="0" y="409.689" width="79.9997" height="9.59996" class="st2" />
    <text x="0" y="416.89" class="st6">
     0x40000000
    </text>
   </g>
  </g>
  <g id="group50-98" transform="translate(141.65,-48.9387)">
   <title>Sheet.50</title>
   <desc>
    0x1FFFFFFF
   </desc>
   <g id="shape51-99" transform="translate(-3.39728E-13,-1.9607)">
    <title>Sheet.51</title>
    <rect x="0" y="413.62" width="52.6249" height="5.66929" class="st5" />
   </g>
   <g id="shape52-101" transform="translate(1,0)">
    <title>Sheet.52</title>
    <desc>
     0x1FFFFFFF
    </desc>
    <rect x="0" y="409.689" width="79.9997" height="9.59996" class="st2" />
    <text x="0" y="416.89" class="st6">
     0x1FFFFFFF
    </text>
   </g>
  </g>
  <g id="group53-104" transform="translate(141.855,-57.4429)">
   <title>Sheet.53</title>
   <desc>
    0x20000000
   </desc>
   <g id="shape54-105" transform="translate(-3.39728E-13,-1.9607)">
    <title>Sheet.54</title>
    <rect x="0" y="413.62" width="52.6249" height="5.66929" class="st5" />
   </g>
   <g id="shape55-107" transform="translate(1,0)">
    <title>Sheet.55</title>
    <desc>
     0x20000000
    </desc>
    <rect x="0" y="409.689" width="79.9997" height="9.59996" class="st2" />
    <text x="0" y="416.89" class="st6">
     0x20000000
    </text>
   </g>
  </g>
  <g id="group56-110" transform="translate(141.65,-12.0886)">
   <title>Sheet.56</title>
   <desc>
    0x00000000
   </desc>
   <g id="shape57-111" transform="translate(-3.39728E-13,-1.9607)">
    <title>Sheet.57</title>
    <rect x="0" y="413.62" width="52.6249" height="5.66929" class="st5" />
   </g>
   <g id="shape58-113" transform="translate(1,0)">
    <title>Sheet.58</title>
    <desc>
     0x00000000
    </desc>
    <rect x="0" y="409.689" width="79.9997" height="9.59996" class="st2" />
    <text x="0" y="416.89" class="st6">
     0x00000000
    </text>
   </g>
  </g>
  <g id="group59-116" transform="translate(111.139,-280.507)">
   <title>Sheet.59</title>
   <desc>
    1.0GB
   </desc>
   <g id="shape60-117">
    <title>Sheet.60</title>
    <rect x="0" y="407.951" width="26.6482" height="11.3386" class="st5" />
   </g>
   <g id="shape61-119" transform="translate(1,-0.86861)">
    <title>Sheet.61</title>
    <desc>
     1.0GB
    </desc>
    <rect x="0" y="409.689" width="39.9998" height="9.59996" class="st2" />
    <text x="0" y="416.89" class="st3">
     1.0GB
    </text>
   </g>
  </g>
  <g id="group62-122" transform="translate(111.139,-189.089)">
   <title>Sheet.62</title>
   <desc>
    1.0GB
   </desc>
   <g id="shape63-123">
    <title>Sheet.63</title>
    <rect x="0" y="407.951" width="26.6482" height="11.3386" class="st5" />
   </g>
   <g id="shape64-125" transform="translate(1,-0.86861)">
    <title>Sheet.64</title>
    <desc>
     1.0GB
    </desc>
    <rect x="0" y="409.689" width="39.9998" height="9.59996" class="st2" />
    <text x="0" y="416.89" class="st3">
     1.0GB
    </text>
   </g>
  </g>
  <g id="group65-128" transform="translate(111.139,-121.767)">
   <title>Sheet.65</title>
   <desc>
    0.5GB
   </desc>
   <g id="shape66-129">
    <title>Sheet.66</title>
    <rect x="0" y="407.951" width="26.6482" height="11.3386" class="st5" />
   </g>
   <g id="shape67-131" transform="translate(1,-0.86861)">
    <title>Sheet.67</title>
    <desc>
     0.5GB
    </desc>
    <rect x="0" y="409.689" width="39.9998" height="9.59996" class="st2" />
    <text x="0" y="416.89" class="st3">
     0.5GB
    </text>
   </g>
  </g>
  <g id="group68-134" transform="translate(111.139,-76.4122)">
   <title>Sheet.68</title>
   <desc>
    0.5GB
   </desc>
   <g id="shape69-135">
    <title>Sheet.69</title>
    <rect x="0" y="407.951" width="26.6482" height="11.3386" class="st5" />
   </g>
   <g id="shape70-137" transform="translate(1,-0.86861)">
    <title>Sheet.70</title>
    <desc>
     0.5GB
    </desc>
    <rect x="0" y="409.689" width="39.9998" height="9.59996" class="st2" />
    <text x="0" y="416.89" class="st3">
     0.5GB
    </text>
   </g>
  </g>
  <g id="group71-140" transform="translate(111.139,-31.0578)">
   <title>Sheet.71</title>
   <desc>
    0.5GB
   </desc>
   <g id="shape72-141">
    <title>Sheet.72</title>
    <rect x="0" y="407.951" width="26.6482" height="11.3386" class="st5" />
   </g>
   <g id="shape73-143" transform="translate(1,-0.86861)">
    <title>Sheet.73</title>
    <desc>
     0.5GB
    </desc>
    <rect x="0" y="409.689" width="39.9998" height="9.59996" class="st2" />
    <text x="0" y="416.89" class="st3">
     0.5GB
    </text>
   </g>
  </g>
  <g id="group74-146" transform="translate(140.622,-321.065)">
   <title>Sheet.74</title>
   <desc>
    0xDFFFFFFF
   </desc>
   <g id="shape75-147" transform="translate(1.9984E-14,-1.9607)">
    <title>Sheet.75</title>
    <rect x="0" y="413.62" width="52.6249" height="5.66929" class="st5" />
   </g>
   <g id="shape76-149" transform="translate(2,0)">
    <title>Sheet.76</title>
    <desc>
     0xDFFFFFFF
    </desc>
    <rect x="0" y="409.689" width="79.9997" height="9.59996" class="st2" />
    <text x="0" y="416.89" class="st6">
     0xDFFFFFFF
    </text>
   </g>
  </g>
  <g id="group77-152" transform="translate(140.622,-329.569)">
   <title>Sheet.77</title>
   <desc>
    0xE0000000
   </desc>
   <g id="shape78-153" transform="translate(1.9984E-14,-1.9607)">
    <title>Sheet.78</title>
    <rect x="0" y="413.62" width="52.6249" height="5.66929" class="st5" />
   </g>
   <g id="shape79-155" transform="translate(2,0)">
    <title>Sheet.79</title>
    <desc>
     0xE0000000
    </desc>
    <rect x="0" y="409.689" width="79.9997" height="9.59996" class="st2" />
    <text x="0" y="416.89" class="st6">
     0xE0000000
    </text>
   </g>
  </g>
  <g id="group80-158" transform="translate(109.768,-338.617)">
   <title>Sheet.80</title>
   <desc>
    1MB
   </desc>
   <g id="shape81-159">
    <title>Sheet.81</title>
    <rect x="0" y="407.951" width="26.6482" height="11.3386" class="st5" />
   </g>
   <g id="shape82-161" transform="translate(9.2,-0.86861)">
    <title>Sheet.82</title>
    <desc>
     1MB
    </desc>
    <rect x="0" y="409.689" width="23.9999" height="9.59996" class="st2" />
    <text x="0" y="416.89" class="st3">
     1MB
    </text>
   </g>
  </g>
  <g id="group83-164" transform="translate(106.606,-375.467)">
   <title>Sheet.83</title>
   <desc>
    0.5GB
   </desc>
   <g id="shape84-165">
    <title>Sheet.84</title>
    <rect x="0" y="407.951" width="29.6052" height="11.3386" class="st5" />
   </g>
   <g id="shape85-167" transform="translate(2.66469,-0.86861)">
    <title>Sheet.85</title>
    <desc>
     511MB
    </desc>
    <rect x="0" y="409.689" width="39.9998" height="9.59996" class="st2" />
    <text x="0" y="416.89" class="st3">
     511MB
    </text>
   </g>
  </g>
 </g>
</svg>